<svg aria-hidden="true" style="position: absolute; width: 0; height: 0; overflow: hidden;" version="1.1" xmlns="http://www.w3.org/2000/svg" xmlns:xlink="http://www.w3.org/1999/xlink">
<defs>

<symbol id="icon-facebook" viewBox="0 0 32 32">
<path d="M21.329 5.313h2.921v-5.088c-0.504-0.069-2.237-0.225-4.256-0.225-4.212 0-7.097 2.649-7.097 7.519v4.481h-4.648v5.688h4.648v14.312h5.699v-14.311h4.46l0.708-5.688h-5.169v-3.919c0.001-1.644 0.444-2.769 2.735-2.769z"></path>
</symbol>

<symbol id="icon-instagram" viewBox="0 0 32 32">
<path d="M31.969 9.408c-0.075-1.7-0.35-2.869-0.744-3.882-0.406-1.075-1.031-2.038-1.85-2.838-0.8-0.813-1.769-1.444-2.832-1.844-1.019-0.394-2.182-0.669-3.882-0.744-1.713-0.081-2.257-0.1-6.601-0.1s-4.888 0.019-6.595 0.094c-1.7 0.075-2.869 0.35-3.882 0.744-1.075 0.406-2.038 1.031-2.838 1.85-0.813 0.8-1.444 1.769-1.844 2.832-0.394 1.019-0.669 2.182-0.744 3.882-0.081 1.713-0.1 2.257-0.1 6.601s0.019 4.888 0.094 6.595c0.075 1.7 0.35 2.869 0.744 3.882 0.406 1.075 1.038 2.038 1.85 2.838 0.8 0.813 1.769 1.444 2.832 1.844 1.019 0.394 2.182 0.669 3.882 0.744 1.706 0.075 2.25 0.094 6.595 0.094s4.888-0.019 6.595-0.094c1.7-0.075 2.869-0.35 3.882-0.744 2.151-0.831 3.851-2.532 4.682-4.682 0.394-1.019 0.669-2.182 0.744-3.882 0.075-1.707 0.094-2.25 0.094-6.595s-0.006-4.888-0.081-6.595zM29.087 22.473c-0.069 1.563-0.331 2.407-0.55 2.969-0.538 1.394-1.644 2.5-3.038 3.038-0.563 0.219-1.413 0.481-2.969 0.55-1.688 0.075-2.194 0.094-6.464 0.094s-4.782-0.019-6.464-0.094c-1.563-0.069-2.407-0.331-2.969-0.55-0.694-0.256-1.325-0.663-1.838-1.194-0.531-0.519-0.938-1.144-1.194-1.838-0.219-0.563-0.481-1.413-0.55-2.969-0.075-1.688-0.094-2.194-0.094-6.464s0.019-4.782 0.094-6.464c0.069-1.563 0.331-2.407 0.55-2.969 0.256-0.694 0.663-1.325 1.2-1.838 0.519-0.531 1.144-0.938 1.838-1.194 0.563-0.219 1.413-0.481 2.969-0.55 1.688-0.075 2.194-0.094 6.464-0.094 4.276 0 4.782 0.019 6.464 0.094 1.563 0.069 2.407 0.331 2.969 0.55 0.694 0.256 1.325 0.662 1.838 1.194 0.531 0.519 0.938 1.144 1.194 1.838 0.219 0.563 0.481 1.413 0.55 2.969 0.075 1.688 0.094 2.194 0.094 6.464s-0.019 4.77-0.094 6.458z"></path>
<path d="M16.059 7.783c-4.538 0-8.22 3.682-8.22 8.22s3.682 8.22 8.22 8.22c4.539 0 8.22-3.682 8.22-8.22s-3.682-8.22-8.22-8.22zM16.059 21.335c-2.944 0-5.332-2.388-5.332-5.332s2.388-5.332 5.332-5.332c2.944 0 5.332 2.388 5.332 5.332s-2.388 5.332-5.332 5.332z"></path>
<path d="M26.524 7.458c0 1.060-0.859 1.919-1.919 1.919s-1.919-0.859-1.919-1.919c0-1.060 0.859-1.919 1.919-1.919s1.919 0.859 1.919 1.919z"></path>
</symbol>

<symbol id="icon-telegram" viewBox="0 0 37 32">
<path d="M14.035 28.912c-1.095 0-0.898-0.421-1.291-1.46l-3.2-10.554 19.874-12.407 2.33 0.618-1.937 5.277-15.775 18.526z"></path>
<path d="M14.035 28.912c0.842 0 1.207-0.393 1.684-0.842 0.73-0.702 10.105-9.825 10.105-9.825l-5.754-1.403-5.333 3.368-0.702 8.421v0.281z"></path>
<path d="M14.596 20.323l13.586 10.021c1.544 0.842 2.667 0.421 3.060-1.432l5.53-26.049c0.562-2.274-0.87-3.284-2.358-2.611l-32.449 12.519c-2.218 0.898-2.189 2.133-0.393 2.667l8.337 2.611 19.284-12.154c0.898-0.561 1.74-0.253 1.067 0.365l-15.663 14.063z"></path>
</symbol>

<symbol id="icon-youtube" viewBox="0 0 46 32">
<path d="M19.051 31.96c-8.761-0.16-11.753-0.304-13.592-0.679-1.244-0.249-2.326-0.803-3.118-1.606-0.613-0.608-1.1-1.535-1.478-2.822-0.324-1.072-0.451-1.964-0.631-4.142-0.276-4.916-0.341-8.936 0-13.427 0.282-2.48 0.418-5.425 2.289-7.142 0.883-0.804 1.911-1.321 3.065-1.535 1.802-0.339 9.482-0.607 17.431-0.607 7.932 0 15.628 0.268 17.432 0.607 1.442 0.268 2.793 1.071 3.587 2.107 1.707 2.659 1.737 5.966 1.91 8.553 0.072 1.232 0.072 8.231 0 9.463-0.27 4.088-0.486 5.534-1.099 7.034-0.379 0.947-0.702 1.446-1.262 2-0.878 0.852-1.997 1.419-3.209 1.625-7.581 0.565-14.018 0.687-21.325 0.571zM30.66 15.534c-4.218-2.233-8.256-4.303-12.384-6.446v12.82c4.344-2.339 8.923-4.482 12.402-6.392l-0.018 0.018z"></path>
</symbol>

</defs>
</svg>
