<svg width="37" height="33" viewBox="0 0 37 33" fill="none" xmlns="http://www.w3.org/2000/svg">
<path d="M35.5496 0.617577C34.7964 -0.0121158 33.7613 -0.174155 32.8542 0.195602L2.13925 12.6979C0.788136 13.2586 0.143706 14.8175 0.699827 16.1796C0.98746 16.8841 1.56001 17.4309 2.27318 17.6823L8.89933 20.0048L12.4903 31.9754C12.4975 31.9998 12.5197 32.0147 12.529 32.0381C12.5662 32.1336 12.6205 32.2215 12.689 32.2972C12.7145 32.3277 12.7424 32.3563 12.7721 32.3826C12.8615 32.4576 12.9654 32.5129 13.0772 32.5452C13.0942 32.5503 13.1056 32.5656 13.123 32.5696L13.1331 32.5692L13.1381 32.5713C13.1953 32.5841 13.2537 32.5904 13.3122 32.5898C13.3887 32.5871 13.4645 32.5738 13.5374 32.5503C13.5515 32.5464 13.5657 32.5474 13.5795 32.5428C13.7039 32.4986 13.8163 32.4259 13.9079 32.3303C13.9185 32.3196 13.9348 32.3177 13.945 32.3063L19.1113 26.559L26.6482 32.443C27.1062 32.804 27.6708 33.0001 28.252 33C29.5093 32.9998 30.5945 32.1118 30.8536 30.8716L36.4469 3.18657C36.6407 2.22889 36.2957 1.24147 35.5496 0.617577ZM14.3653 22.2751L13.1529 28.2152L10.6246 19.7844L23.1645 13.2008L14.598 21.8379C14.4796 21.9574 14.3987 22.1094 14.3653 22.2751ZM29.1745 30.5238C29.1088 30.842 28.8837 31.1029 28.5802 31.2125C28.2837 31.3275 27.9489 31.2762 27.6996 31.0775L19.5333 24.7023C19.1798 24.4263 18.6751 24.4711 18.3748 24.8052L14.7823 28.8017L15.9926 22.8776L28.3157 10.4513C28.6506 10.1142 28.6512 9.56737 28.3169 9.22979C28.0525 8.96257 27.6466 8.89949 27.3146 9.07397L9.54878 18.4016L2.83401 16.0484C2.46801 15.927 2.21909 15.5844 2.21459 15.196C2.1969 14.8048 2.42657 14.4452 2.78713 14.2997L33.4971 1.79911C33.8179 1.66186 34.1881 1.71936 34.453 1.94765C34.7167 2.16222 34.8379 2.50835 34.7661 2.84223L29.1745 30.5238Z" fill="black"/>
</svg>
