<svg width="43" height="31" viewBox="0 0 43 31" fill="none" xmlns="http://www.w3.org/2000/svg">
<path d="M42.5 15.0984C42.5 14.9953 42.5 14.8781 42.4953 14.7422C42.4906 14.3625 42.4813 13.9359 42.4719 13.4813C42.4344 12.1734 42.3688 10.8703 42.2656 9.64219C42.125 7.95 41.9187 6.53906 41.6375 5.47969C41.3407 4.37414 40.7589 3.36585 39.9503 2.55561C39.1417 1.74536 38.1346 1.16154 37.0297 0.8625C35.7031 0.50625 33.1062 0.285937 29.45 0.15C27.7109 0.0843749 25.85 0.0421872 23.9891 0.0187497C23.3375 0.00937471 22.7328 0.0046875 22.1891 0H20.8109C20.2672 0.0046875 19.6625 0.00937471 19.0109 0.0187497C17.15 0.0421872 15.2891 0.0843749 13.55 0.15C9.89375 0.290625 7.29219 0.510937 5.97031 0.8625C4.865 1.16081 3.85751 1.74438 3.0488 2.55474C2.24009 3.3651 1.65856 4.37378 1.3625 5.47969C1.07656 6.53906 0.875 7.95 0.734375 9.64219C0.63125 10.8703 0.565625 12.1734 0.528125 13.4813C0.514062 13.9359 0.509375 14.3625 0.504687 14.7422C0.504687 14.8781 0.5 14.9953 0.5 15.0984V15.3609C0.5 15.4641 0.5 15.5813 0.504687 15.7172C0.509375 16.0969 0.51875 16.5234 0.528125 16.9781C0.565625 18.2859 0.63125 19.5891 0.734375 20.8172C0.875 22.5094 1.08125 23.9203 1.3625 24.9797C1.9625 27.225 3.725 28.9969 5.97031 29.5969C7.29219 29.9531 9.89375 30.1734 13.55 30.3094C15.2891 30.375 17.15 30.4172 19.0109 30.4406C19.6625 30.45 20.2672 30.4547 20.8109 30.4594H22.1891C22.7328 30.4547 23.3375 30.45 23.9891 30.4406C25.85 30.4172 27.7109 30.375 29.45 30.3094C33.1062 30.1687 35.7078 29.9484 37.0297 29.5969C39.275 28.9969 41.0375 27.2297 41.6375 24.9797C41.9234 23.9203 42.125 22.5094 42.2656 20.8172C42.3688 19.5891 42.4344 18.2859 42.4719 16.9781C42.4859 16.5234 42.4906 16.0969 42.4953 15.7172C42.4953 15.5813 42.5 15.4641 42.5 15.3609V15.0984ZM39.125 15.3422C39.125 15.4406 39.125 15.5484 39.1203 15.675C39.1156 16.0406 39.1063 16.4438 39.0969 16.8797C39.0641 18.1266 38.9984 19.3734 38.9 20.5312C38.7734 22.0406 38.5953 23.2781 38.375 24.1078C38.0844 25.1906 37.2312 26.0484 36.1531 26.3344C35.1687 26.5969 32.6891 26.8078 29.3187 26.9344C27.6125 27 25.775 27.0422 23.9422 27.0656C23.3 27.075 22.7047 27.0797 22.1703 27.0797H20.8297L19.0578 27.0656C17.225 27.0422 15.3922 27 13.6813 26.9344C10.3109 26.8031 7.82656 26.5969 6.84687 26.3344C5.76875 26.0438 4.91563 25.1906 4.625 24.1078C4.40469 23.2781 4.22656 22.0406 4.1 20.5312C4.00156 19.3734 3.94063 18.1266 3.90313 16.8797C3.88906 16.4438 3.88438 16.0359 3.87969 15.675C3.87969 15.5484 3.875 15.4359 3.875 15.3422V15.1172C3.875 15.0188 3.875 14.9109 3.87969 14.7844C3.88438 14.4187 3.89375 14.0156 3.90313 13.5797C3.93594 12.3328 4.00156 11.0859 4.1 9.92812C4.22656 8.41875 4.40469 7.18125 4.625 6.35156C4.91563 5.26875 5.76875 4.41094 6.84687 4.125C7.83125 3.8625 10.3109 3.65156 13.6813 3.525C15.3875 3.45937 17.225 3.41719 19.0578 3.39375C19.7 3.38437 20.2953 3.37969 20.8297 3.37969H22.1703L23.9422 3.39375C25.775 3.41719 27.6078 3.45937 29.3187 3.525C32.6891 3.65625 35.1734 3.8625 36.1531 4.125C37.2312 4.41563 38.0844 5.26875 38.375 6.35156C38.5953 7.18125 38.7734 8.41875 38.9 9.92812C38.9984 11.0859 39.0594 12.3328 39.0969 13.5797C39.1109 14.0156 39.1156 14.4234 39.1203 14.7844C39.1203 14.9109 39.125 15.0234 39.125 15.1172V15.3422ZM17.3281 21.5109L28.2031 15.1828L17.3281 8.94844V21.5109Z" fill="black"/>
</svg>
