<svg width="38" height="38" viewBox="0 0 38 38" fill="none" xmlns="http://www.w3.org/2000/svg">
<path d="M36 0H1.5C0.670312 0 0 0.670312 0 1.5V36C0 36.8297 0.670312 37.5 1.5 37.5H36C36.8297 37.5 37.5 36.8297 37.5 36V1.5C37.5 0.670312 36.8297 0 36 0ZM34.5 34.5H25.8703V22.9781H30.7453L31.4766 17.3203H25.8703V13.7062C25.8703 12.0656 26.325 10.95 28.6734 10.95H31.6687V5.8875C31.1484 5.81719 29.3719 5.6625 27.3 5.6625C22.9781 5.6625 20.0203 8.30156 20.0203 13.1437V17.3156H15.1359V22.9734H20.025V34.5H3V3H34.5V34.5Z" fill="black"/>
</svg>
