<svg width="41" height="31" viewBox="0 0 41 31" fill="none" xmlns="http://www.w3.org/2000/svg">
<path d="M31.11 3.68018V30.0702H37.44C38.1155 30.0702 38.7636 29.8032 39.2432 29.3275C39.7227 28.8517 39.9947 28.2057 40 27.5302V8.35018M9.89 3.68018V30.0702H3.56C2.8845 30.0702 2.23636 29.8032 1.75684 29.3275C1.27732 28.8517 1.00528 28.2057 1 27.5302V8.35018L9.89 3.68018Z" stroke="black" stroke-miterlimit="10"/>
<path d="M20.5 22.9802L40 8.53015V4.93015C39.9982 4.20183 39.7945 3.48826 39.4116 2.8687C39.0287 2.24913 38.4816 1.74783 37.831 1.42045C37.1804 1.09308 36.4518 0.952448 35.7261 1.01418C35.0004 1.07591 34.306 1.33759 33.72 1.77015L20.5 11.5902L7.28 1.77015C6.69404 1.33759 5.99964 1.07591 5.27394 1.01418C4.54823 0.952448 3.81961 1.09308 3.169 1.42045C2.5184 1.74783 1.97127 2.24913 1.58838 2.8687C1.20549 3.48826 1.00182 4.20183 1 4.93015V8.53015L20.5 22.9802Z" stroke="black" stroke-miterlimit="10"/>
</svg>
