<svg width="22" height="19" viewBox="0 0 22 19" fill="none" xmlns="http://www.w3.org/2000/svg">
<path d="M8.33341 17.1667C7.68341 17.1667 7.80008 16.9167 7.56675 16.3001L5.66675 10.0334L17.4667 2.66675L18.8501 3.03341L17.7001 6.16675L8.33341 17.1667Z" fill="#DC4405"/>
<path d="M8.33325 17.1667C8.83325 17.1667 9.04992 16.9333 9.33325 16.6667C9.76659 16.25 15.3333 10.8333 15.3333 10.8333L11.9166 10L8.74992 12L8.33325 17V17.1667Z" fill="#DC4405"/>
<path d="M8.66656 12.0666L16.7332 18.0166C17.6499 18.5166 18.3166 18.2666 18.5499 17.1666L21.8332 1.69991C22.1666 0.34991 21.3166 -0.250089 20.4332 0.149911L1.16656 7.58325C-0.150103 8.11658 -0.133437 8.84991 0.93323 9.16658L5.88323 10.7166L17.3332 3.49991C17.8666 3.16658 18.3666 3.34991 17.9666 3.71658L8.66656 12.0666Z" fill="#DC4405"/>
</svg>
