<svg width="23" height="16" viewBox="0 0 23 16" fill="none" xmlns="http://www.w3.org/2000/svg">
<path d="M9.52556 15.9802C5.14531 15.9003 3.64924 15.8284 2.72966 15.6408C2.10751 15.5161 1.56686 15.2392 1.17044 14.8377C0.864055 14.5338 0.620399 14.0701 0.431364 13.4268C0.269211 12.8909 0.206057 12.445 0.11602 11.3558C-0.0218097 8.89755 -0.0546669 6.88777 0.11602 4.64215C0.256837 3.40204 0.325111 1.9299 1.26047 1.07104C1.70213 0.669081 2.21589 0.410409 2.79282 0.303475C3.69404 0.133985 7.53364 0 11.5085 0C15.4744 0 19.3226 0.133985 20.2246 0.303475C20.9454 0.43746 21.6213 0.838992 22.0181 1.35676C22.8716 2.68647 22.8865 4.33994 22.9731 5.6333C23.009 6.24955 23.009 9.7488 22.9731 10.365C22.8383 12.4091 22.7299 13.1322 22.4235 13.8821C22.234 14.3554 22.0723 14.6052 21.7924 14.8821C21.3534 15.3081 20.7937 15.5915 20.1879 15.6945C16.3974 15.9768 13.1787 16.0381 9.52556 15.9802ZM15.3302 7.76692C13.2214 6.65066 11.2021 5.61555 9.1381 4.54409V10.9542C11.3101 9.78473 13.5998 8.71327 15.3391 7.75804L15.3302 7.76692Z" fill="#DC4405"/>
</svg>
