<svg width="25" height="18" viewBox="0 0 25 18" fill="none" xmlns="http://www.w3.org/2000/svg">
<path d="M1.64663 18H5.47393V8.721L0 4.64893V16.3756C0 17.2657 0.734308 18 1.64663 18Z" fill="white"/>
<path d="M18.5581 18H22.3854C23.2977 18 24.032 17.2657 24.032 16.3533V4.64893L18.5804 8.74325V18H18.5581Z" fill="white"/>
<path d="M18.5581 1.64491V8.74322L24.0098 4.6489V2.46823C24.0098 0.443316 21.6956 -0.713775 20.0712 0.510072L18.5581 1.64491Z" fill="white"/>
<path fill-rule="evenodd" clip-rule="evenodd" d="M5.45142 8.72083V1.64478L11.9934 6.56241L18.5354 1.64478V8.74308L12.0157 13.6385L5.45142 8.72083Z" fill="white"/>
<path d="M0 2.44595V4.62662L5.45168 8.72094V1.64488L3.91631 0.487793C2.31418 -0.713802 0 0.44329 0 2.44595Z" fill="white"/>
</svg>
